<?xml version="1.0" encoding="utf-8"?>
<!-- Generator: Adobe Illustrator 22.0.0, SVG Export Plug-In . SVG Version: 6.00 Build 0)  -->
<svg version="1.1" id="图层_1" xmlns="http://www.w3.org/2000/svg" xmlns:xlink="http://www.w3.org/1999/xlink" x="0px" y="0px"
	 viewBox="0 0 30 30" style="enable-background:new 0 0 30 30;" xml:space="preserve">
<style type="text/css">
	.st0{fill:#CCCCCC;}
</style>
<path class="st0" d="M28.5,30h-27C0.6,30,0,29.4,0,28.6V4.3c0-0.8,0.6-1.4,1.4-1.4h4.3V1.4C5.7,0.7,6.3,0,7.2,0s1.4,0.6,1.4,1.4v1.4
	h12.8V1.4C21.4,0.7,22,0,22.8,0c0.8,0,1.4,0.6,1.4,1.4v1.4h4.3c0.8,0,1.4,0.6,1.4,1.4v24.3C29.9,29.4,29.3,30,28.5,30z M27,12.2
	c0-0.4-0.3-0.7-0.7-0.7H3.5c-0.4,0-0.7,0.3-0.7,0.7v14.3c0,0.4,0.3,0.7,0.7,0.7h22.8c0.4,0,0.7-0.3,0.7-0.7L27,12.2L27,12.2z
	 M24.2,17.9h-2.8c-0.4,0-0.7-0.3-0.7-0.7v-2.8c0-0.4,0.3-0.7,0.7-0.7h2.8c0.4,0,0.7,0.3,0.7,0.7v2.8C24.9,17.6,24.6,17.9,24.2,17.9z
	 M16.4,25h-2.8c-0.4,0-0.7-0.3-0.7-0.7v-2.8c0-0.4,0.3-0.7,0.7-0.7h2.8c0.4,0,0.7,0.3,0.7,0.7v2.8C17.1,24.7,16.8,25,16.4,25z
	 M16.4,17.9h-2.8c-0.4,0-0.7-0.3-0.7-0.7v-2.8c0-0.4,0.3-0.7,0.7-0.7h2.8c0.4,0,0.7,0.3,0.7,0.7v2.8C17.1,17.6,16.8,17.9,16.4,17.9z
	 M8.5,25H5.7C5.3,25,5,24.7,5,24.3v-2.8c0-0.4,0.3-0.7,0.7-0.7h2.8c0.4,0,0.7,0.3,0.7,0.7v2.8C9.3,24.7,8.9,25,8.5,25z M8.5,17.9
	H5.7c-0.4,0-0.7-0.3-0.7-0.7v-2.8c0-0.4,0.3-0.7,0.7-0.7h2.8c0.4,0,0.7,0.3,0.7,0.7v2.8C9.3,17.6,8.9,17.9,8.5,17.9z"/>
</svg>
