<?xml version="1.0" encoding="utf-8"?>
<!-- Generator: Adobe Illustrator 22.0.0, SVG Export Plug-In . SVG Version: 6.00 Build 0)  -->
<svg version="1.1" id="격리_모드" xmlns="http://www.w3.org/2000/svg" xmlns:xlink="http://www.w3.org/1999/xlink" x="0px"
	 y="0px" viewBox="0 0 214.8 94.8" style="enable-background:new 0 0 214.8 94.8;" xml:space="preserve">
<style type="text/css">
	.st0{fill:#E1251B;}
	.st1{fill:#FF671D;}
</style>
<g>
	<path id="XMLID_594_" class="st0" d="M199.4,10.1l-2.9-8.2c-0.5-1.5-2.2-2.2-3.6-1.7c-1.5,0.5-2.3,2.1-1.8,3.6l3.1,8.6l3.6,2.1
		L199.4,10.1z"/>
	<path id="XMLID_593_" class="st1" d="M204.6,12.4l3-8.6c0.5-1.5-0.2-3.1-1.7-3.6c-1.5-0.5-3.1,0.2-3.6,1.7l-2.9,8.2l1.6,4.4
		L204.6,12.4z"/>
	<path id="XMLID_592_" class="st0" d="M214.4,10.1c-0.8-1.4-2.5-1.8-3.9-1.1l-5.9,3.3L203,17l3.1,1.2l7.2-4.1
		C214.7,13.2,215.2,11.5,214.4,10.1"/>
	<path id="XMLID_591_" class="st1" d="M202.2,22.8l6.2,2.3c0.3,0.1,0.7,0.2,1,0.2c1.2,0,2.3-0.7,2.7-1.8c0.5-1.5-0.2-3.1-1.7-3.7
		l-4.3-1.6l-3.8,2.2V22.8z"/>
	<path id="XMLID_590_" class="st0" d="M196.6,22.8v4.5c0,1.6,1.3,2.8,2.8,2.8c1.6,0,2.8-1.3,2.8-2.8v-4.5l-2.8-1.1L196.6,22.8z"/>
	<path id="XMLID_589_" class="st0" d="M192.7,18.1l-4.3,1.6c-1.5,0.6-2.2,2.2-1.7,3.7c0.5,1.1,1.6,1.8,2.7,1.8c0.3,0,0.7,0,1-0.2
		l6.2-2.3v-2.5L192.7,18.1z"/>
	<path id="XMLID_588_" class="st1" d="M194.2,12.4l-5.9-3.3c-1.3-0.7-3.1-0.3-3.9,1.1c-0.8,1.4-0.2,3.1,1.1,3.9l7.2,4.1l3.1-1.2
		L194.2,12.4z"/>
	<path id="XMLID_587_" class="st0" d="M91.9,94c10,0,19.2-4.2,25.6-10.9c4.3-4.5,7.5-10.1,9.2-16.3l11.2,21c1.7,3.3,5.1,5.3,8.8,5.3
		c3.7,0,7.1-2,8.8-5.3l27.4-51.4c2.6-4.9,0.7-11-4.1-13.6c-4.9-2.6-11-0.7-13.6,4.1l-17.6,34.4l-0.8,2.8l-0.8-2.8L128.3,27
		c-2.6-4.9-8.7-6.7-13.5-4.1c-4.9,2.6-6.8,8.7-4.2,13.6l6.6,12.4H96.8c-4.6,0-8.4,3.9-8.4,8.6c0,4.7,3.8,8.6,8.4,8.6h10
		c-2.7,4.1-7.3,8.2-15,8.2c-4.5,0-8.5-1.8-11.5-4.9c-3-3.1-4.9-7.4-4.9-12.3c0-8.4,5.8-15.2,13-16.8c5.3-1.2,8.7-6.4,7.5-11.8
		c-0.7-3.1-2.8-5.6-5.5-6.8c-3.9-1.7-8.8,0-8.8,0C66.5,26.2,55.7,40.4,55.7,57c0,2.2,0.2,4.3,0.6,6.3c-3.2,5.2-9.1,11.7-19.1,11.7
		c-9.5,0-17.5-7.8-17.5-17.7C19.7,48.6,26,41.5,34,40c0,0,2.1-0.4,5.3-0.7c3.2-0.3,7.7-3.9,7.7-9.5c0-5.5-4.4-9.8-9.9-9.8
		C16.6,20,0,36.8,0,57.4C0,78,16.6,94.8,37.2,94.8c11.2,0,21.2-5,28-12.9C65.2,82,74.8,94,91.9,94"/>
</g>
</svg>
