<?xml version="1.0" encoding="utf-8"?>
<!-- Generator: Adobe Illustrator 22.0.0, SVG Export Plug-In . SVG Version: 6.00 Build 0)  -->
<svg version="1.1" id="_x34_" xmlns="http://www.w3.org/2000/svg" xmlns:xlink="http://www.w3.org/1999/xlink" x="0px" y="0px"
	 viewBox="0 0 33.6 19.6" style="enable-background:new 0 0 33.6 19.6;" xml:space="preserve">
<style type="text/css">
	.st0{clip-path:url(#SVGID_2_);fill:#D80031;}
	.st1{clip-path:url(#SVGID_2_);fill:#FFFFFF;}
	.st2{clip-path:url(#SVGID_2_);fill:#2530A9;}
	.st3{clip-path:url(#SVGID_2_);}
	.st4{clip-path:url(#SVGID_4_);fill:#F5D028;}
</style>
<g id="MALAYSIA_3_">
	<g>
		<g>
			<defs>
				<rect id="SVGID_1_" width="33.6" height="19.6"/>
			</defs>
			<clipPath id="SVGID_2_">
				<use xlink:href="#SVGID_1_"  style="overflow:visible;"/>
			</clipPath>
			<rect class="st0" width="33.6" height="1.4"/>
			<rect y="1.4" class="st1" width="33.6" height="1.4"/>
			<rect y="2.8" class="st0" width="33.6" height="1.4"/>
			<rect y="4.2" class="st1" width="33.6" height="1.4"/>
			<rect y="5.6" class="st0" width="33.6" height="1.4"/>
			<rect y="7" class="st1" width="33.6" height="1.4"/>
			<rect y="8.4" class="st0" width="33.6" height="1.4"/>
			<rect y="9.8" class="st1" width="33.6" height="1.4"/>
			<rect y="11.2" class="st0" width="33.6" height="1.4"/>
			<rect y="12.6" class="st1" width="33.6" height="1.4"/>
			<rect y="14" class="st0" width="33.6" height="1.4"/>
			<rect y="15.4" class="st1" width="33.6" height="1.4"/>
			<rect y="16.8" class="st0" width="33.6" height="1.4"/>
			<rect y="18.2" class="st1" width="33.6" height="1.4"/>
			<rect class="st2" width="19.6" height="11.2"/>
			<g class="st3">
				<defs>
					<rect id="SVGID_3_" width="33.6" height="19.6"/>
				</defs>
				<clipPath id="SVGID_4_">
					<use xlink:href="#SVGID_3_"  style="overflow:visible;"/>
				</clipPath>
				<path class="st4" d="M5.2,5.6c0-2,1.6-3.7,3.7-3.7c0.7,0,1.4,0.2,1.9,0.5C10.1,1.8,9.1,1.4,8,1.4c-2.3,0-4.2,1.9-4.2,4.2
					c0,2.3,1.9,4.2,4.2,4.2c1.1,0,2-0.4,2.8-1.1c-0.6,0.3-1.2,0.5-1.9,0.5C6.9,9.3,5.2,7.6,5.2,5.6"/>
				<polygon class="st4" points="13.6,5.6 15.6,4.8 13.5,5 15,3.4 13.1,4.5 13.8,2.4 12.5,4.2 12.2,2.1 12,3.6 11.9,4.1 11.9,4.2 
					10.7,2.4 11.4,4.5 9.5,3.4 11,5 8.8,4.8 10.8,5.6 8.8,6.4 11,6.2 9.5,7.8 11.4,6.7 10.7,8.7 11.9,7 11.9,7.1 12,7.6 12.2,9.1 
					12.5,7 13.8,8.7 13.1,6.7 15,7.8 13.5,6.2 15.6,6.4 				"/>
			</g>
		</g>
	</g>
</g>
</svg>
