<?xml version="1.0" encoding="utf-8"?>
<!-- Generator: Adobe Illustrator 22.0.0, SVG Export Plug-In . SVG Version: 6.00 Build 0)  -->
<svg version="1.1" id="图层_1" xmlns="http://www.w3.org/2000/svg" xmlns:xlink="http://www.w3.org/1999/xlink" x="0px" y="0px"
	 viewBox="0 0 30 30" style="enable-background:new 0 0 30 30;" xml:space="preserve">
<style type="text/css">
	.st0{fill:#CCCCCC;}
</style>
<g>
	<path class="st0" d="M29.1,2.5H4.6c-0.5,0-0.9,0.4-0.9,0.9v2.9H0.9C0.4,6.2,0,6.6,0,7.1v19.5c0,0.5,0.4,0.9,0.9,0.9h24.5
		c0.5,0,0.9-0.4,0.9-0.9v-2.9h2.8c0.5,0,0.9-0.4,0.9-0.9V3.4C30,2.8,29.6,2.5,29.1,2.5z M24.5,8v12.1l-6-6.7c-0.2-0.2-0.5-0.2-0.7,0
		l-7.4,8.2l-3.6-3.9c-0.1-0.1-0.2-0.1-0.3-0.1l0,0c-0.1,0-0.3,0.1-0.3,0.1l-4.5,5V8H24.5z M28.2,22h-1.9V7.1c0-0.5-0.4-0.9-0.9-0.9
		h-20v-2h22.8C28.2,4.3,28.2,22,28.2,22z"/>
	<ellipse class="st0" cx="6.6" cy="12.6" rx="2.1" ry="2.2"/>
</g>
</svg>
