<?xml version="1.0" encoding="utf-8"?>
<!-- Generator: Adobe Illustrator 16.0.0, SVG Export Plug-In . SVG Version: 6.00 Build 0)  -->
<!DOCTYPE svg PUBLIC "-//W3C//DTD SVG 1.1//EN" "http://www.w3.org/Graphics/SVG/1.1/DTD/svg11.dtd">
<svg version="1.1" id="图层_1" xmlns="http://www.w3.org/2000/svg" xmlns:xlink="http://www.w3.org/1999/xlink" x="0px" y="0px"
	 width="35px" height="34.916px" viewBox="0 0 35 34.916" enable-background="new 0 0 35 34.916" xml:space="preserve">
<g>
	<defs>
		<rect id="SVGID_1_" width="35" height="34.916"/>
	</defs>
	<clipPath id="SVGID_2_">
		<use xlink:href="#SVGID_1_"  overflow="visible"/>
	</clipPath>
	<path clip-path="url(#SVGID_2_)" fill="#EB8822" d="M14.342,31.538c0,1.865,1.414,3.378,3.157,3.378
		c1.744,0,3.158-1.513,3.158-3.378c0-0.221-0.08-0.414-0.118-0.622h-6.08C14.422,31.124,14.342,31.317,14.342,31.538"/>
	<path clip-path="url(#SVGID_2_)" fill="#EB8822" d="M20.25,2.75c0,1.519-1.23,2.75-2.75,2.75c-1.519,0-2.75-1.231-2.75-2.75
		C14.75,1.231,15.98,0,17.5,0C19.02,0,20.25,1.231,20.25,2.75"/>
	<path clip-path="url(#SVGID_2_)" fill="#0080C6" d="M17.689,5.878c0.913,0,5.579,0.215,7.869,4.463
		c1.552,2.876,1.712,5.673,1.854,8.141c0.134,2.354,0.251,4.386,1.55,5.939l0.068,0.08l0.074,0.072L33,28.348v0.59H21.52h-8.04H2
		v-0.59l3.896-3.774l0.075-0.072l0.068-0.08c1.299-1.553,1.416-3.585,1.55-5.939c0.141-2.468,0.301-5.265,1.853-8.141
		c2.29-4.248,6.957-4.463,7.869-4.463L17.44,5.88l0.06,0.002l0.06-0.002L17.689,5.878 M17.689,3.878
		c-0.083,0-0.146,0.001-0.189,0.003c-0.042-0.002-0.106-0.003-0.189-0.003c-1.244,0-6.816,0.297-9.63,5.514
		c-3.177,5.89-1.213,11.4-3.177,13.745L0,27.501v3.437h13.48h8.04H35v-3.437l-4.505-4.364c-1.964-2.345,0-7.854-3.177-13.745
		C24.505,4.175,18.933,3.878,17.689,3.878"/>
</g>
</svg>
