<?xml version="1.0" encoding="utf-8"?>
<!-- Generator: Adobe Illustrator 16.0.0, SVG Export Plug-In . SVG Version: 6.00 Build 0)  -->
<!DOCTYPE svg PUBLIC "-//W3C//DTD SVG 1.1//EN" "http://www.w3.org/Graphics/SVG/1.1/DTD/svg11.dtd">
<svg version="1.1" id="图层_1" xmlns="http://www.w3.org/2000/svg" xmlns:xlink="http://www.w3.org/1999/xlink" x="0px" y="0px"
	 width="427.898px" height="174.815px" viewBox="0 0 427.898 174.815" enable-background="new 0 0 427.898 174.815"
	 xml:space="preserve">
<g>
	<defs>
		<rect id="SVGID_1_" width="427.898" height="174.815"/>
	</defs>
	<clipPath id="SVGID_2_">
		<use xlink:href="#SVGID_1_"  overflow="visible"/>
	</clipPath>
	<path clip-path="url(#SVGID_2_)" fill="#E33143" d="M140.318,133.939c-2.974-22.455-14.029-40.765-25.322-40.859
		c-11.298,0-27.811,18.336-37.431,40.894c-9.621,22.557,1.271,40.842,25.451,40.842
		C127.364,174.566,143.284,156.425,140.318,133.939"/>
	<path clip-path="url(#SVGID_2_)" fill="#FFFFFF" d="M24.988,74.172L24.988,74.172C10.536,74.172,0,85.585,0,100.038
		c0,14.441,10.536,25.518,24.988,25.518c8.026,0,15.618-3.608,20.625-9.871c-0.548-0.509-1.928-3.466-6.575-3.466
		c-4.392,0-5.375,4.39-14.05,4.39c-8.503,0-15.56-7.211-15.56-16.57c0-9.369,7.057-16.915,15.56-16.915
		c7.747,0,9.604,4.605,13.594,4.605c3.982,0,6.303-3.185,6.855-3.685C40.414,77.776,33.014,74.172,24.988,74.172"/>
	<path clip-path="url(#SVGID_2_)" fill="#FFFFFF" d="M75.934,75.669H55.622c-3.429,0-5.834,2.062-5.834,5.331V84h9.047
		c0,0,0.347,30.582-0.042,33.882l-0.008,0.013c-0.126,2.522-1.209,8.564-7.032,11.287c-4.772,2.239-4.822,4.385-5.065,7.696
		c0.063,0.249,0.172,0.396,0.306,0.399h0.029c0,0,0.041,0,0.054-0.015c0.171-0.044,4.731-1.165,5.4-1.445l-0.013-0.015
		c4.288-1.334,10.855-4.272,13.979-10.356c0,0,2.936-4.516,2.874-14.198V84h0.435c3.438,0,6.182-2.066,6.182-5.339v-2.999"/>
	<path clip-path="url(#SVGID_2_)" fill="#EB8822" d="M180.648,59.581c-21.186-8.324-42.581-7.456-48.039,2.411
		c-5.329,10.014,2.581,33.151,17.643,52.496c15.066,19.347,36.331,18.698,48.064-2.462C209.932,90.933,201.763,67.89,180.648,59.581
		"/>
	<path clip-path="url(#SVGID_2_)" fill="#0080C6" d="M72.956,66.333c18.789,12.843,39.849,16.72,47.302,8.395
		c7.525-8.395,4.932-32.91-5.446-55.135c-10.385-22.215-31.27-26.312-47.419-8.311C51.456,29.278,54.201,53.539,72.956,66.333"/>
	<path clip-path="url(#SVGID_2_)" d="M271.142,119.797v-3.932v-11.417V84.368h6.115c4.567,0,8.65,1.681,11.578,4.544
		c2.937,2.868,4.714,6.923,4.714,11.628c0.004,4.7-1.777,8.684-4.714,11.474c-2.937,2.779-7.019,4.371-11.578,4.371h-1.688
		c-0.595,0.027-1.272,0.111-1.883,0.365c-0.607,0.26-1.167,0.662-1.573,1.371L271.142,119.797 M277.257,75.561h-5.696h-5.313
		c-1.656,0-3.024,0.59-3.978,1.554c-0.975,0.97-1.526,2.317-1.531,3.877l-0.033,44.208l16.551-0.023
		c7.403,0,14.021-2.681,18.793-7.098c4.748-4.422,7.659-10.558,7.659-17.539C303.709,86.595,292.069,75.57,277.257,75.561"/>
	<path clip-path="url(#SVGID_2_)" fill="#000101" d="M225.198,104.398l13.192-15.775l-0.134,15.775H225.198 M247.803,75.46h-3.677
		c-1.979,0-3.477,0.611-4.539,1.711l-6.989,8.236l-14.442,16.975c-0.929,1.1-1.431,2.307-1.477,3.479v0.354
		c0.046,1.248,0.623,2.436,1.752,3.392l1.234,1.048l1.986,1.405l16.484,0.053l-0.154,12.966h4.43c3.472,0,5.91-1.747,5.91-5.055
		l-0.084-7.878l3.066,0.017c3.149,0,5.345-1.883,5.345-4.884v-2.882h-8.516L247.803,75.46"/>
	<path clip-path="url(#SVGID_2_)" fill="#FFFFFF" d="M390.179,75.563H371.03c-2.849,0-4.413,1.378-4.413,3.97v33.162h19.141
		c2.602,0,4.421-1.308,4.421-3.787v-2.979c0,0-9.048,0.009-11.578,0.009c-0.138,0-0.318-0.007-0.531-0.007
		c-0.92,0-2.4,0.126-3.162,1.462v-9.829h10.06c2.589,0,4.404-1.312,4.404-3.793v-2.993h-10.582c-0.134,0-0.326-0.008-0.561-0.008
		c-0.954,0-2.535,0.133-3.321,1.479v-9.907h10.851c2.602,0,4.421-1.558,4.421-4.036V75.563"/>
	<path clip-path="url(#SVGID_2_)" fill="#FFFFFF" d="M348.498,75.573H344.6c-2.594,0-4.416,1.874-4.416,4.35l-0.018,24.519v8.24
		l17.383,0.021c2.585,0,4.404-1.555,4.404-4.03v-3.256h-13.468L348.498,75.573"/>
	<path clip-path="url(#SVGID_2_)" fill="#FFFFFF" d="M402.798,75.521h-2.405c-2.589,0-4.764,1.315-4.764,3.793l9.378,15.176
		l-10.479,18.219l0.055-0.014l-0.055,0.02h6.044c1.787,0,2.933-0.635,3.522-1.828h0.008l0.009-0.007l7.01-12.631l8.508,14.49h2.401
		c2.602,0,4.764-1.315,4.764-3.792l-9.369-15.177l10.474-18.216l-0.063,0.013l0.063-0.021h-6.057c-1.781,0-2.919,0.634-3.526,1.828
		l-0.004,0.008l-7.006,12.634L402.798,75.521"/>
	<path clip-path="url(#SVGID_2_)" fill="#FFFFFF" d="M318.215,83.74v-1.389h0.008h0.009h3.789c2.882,0,5.827,0.506,5.827,4.227
		c0,3.718-3.05,4.222-6.036,4.222h-0.903c-0.896,0.052-2.045,0.324-2.702,1.454v-8.523L318.215,83.74 M323.61,75.556h-6.889
		l-0.013,0.006h-2.371c-2.85,0-4.422,1.374-4.422,3.97v33.196h3.906c2.598,0,4.417-1.318,4.417-3.789v-1.982l-0.033-9.361h5.505
		c4.425,0,12.405-2.438,12.405-11.074C336.116,78.833,329.759,75.556,323.61,75.556"/>
	<path clip-path="url(#SVGID_2_)" fill="#E33143" d="M140.318,133.939c-2.974-22.455-14.029-40.765-25.322-40.859
		c-11.298,0-27.811,18.336-37.431,40.894c-9.621,22.557,1.271,40.842,25.451,40.842
		C127.364,174.566,143.284,156.425,140.318,133.939"/>
	<path clip-path="url(#SVGID_2_)" fill="#FFFFFF" d="M24.988,74.172L24.988,74.172C10.536,74.172,0,85.585,0,100.038
		c0,14.441,10.536,25.518,24.988,25.518c8.026,0,15.618-3.608,20.625-9.871c-0.548-0.509-1.928-3.466-6.575-3.466
		c-4.392,0-5.375,4.39-14.05,4.39c-8.503,0-15.56-7.211-15.56-16.57c0-9.369,7.057-16.915,15.56-16.915
		c7.747,0,9.604,4.605,13.594,4.605c3.982,0,6.303-3.185,6.855-3.685C40.414,77.776,33.014,74.172,24.988,74.172"/>
	<path clip-path="url(#SVGID_2_)" fill="#FFFFFF" d="M75.934,75.669H55.622c-3.429,0-5.834,2.062-5.834,5.331V84h9.047
		c0,0,0.347,30.582-0.042,33.882l-0.008,0.013c-0.126,2.522-1.209,8.564-7.032,11.287c-4.772,2.239-4.822,4.385-5.065,7.696
		c0.063,0.249,0.172,0.396,0.306,0.399h0.029c0,0,0.041,0,0.054-0.015c0.171-0.044,4.731-1.165,5.4-1.445l-0.013-0.015
		c4.288-1.334,10.855-4.272,13.979-10.356c0,0,2.936-4.516,2.874-14.198V84h0.435c3.438,0,6.182-2.066,6.182-5.339v-2.999"/>
	<path clip-path="url(#SVGID_2_)" fill="#EB8822" d="M180.648,59.581c-21.186-8.324-42.581-7.456-48.039,2.411
		c-5.329,10.014,2.581,33.151,17.643,52.496c15.066,19.347,36.331,18.698,48.064-2.462C209.932,90.933,201.763,67.89,180.648,59.581
		"/>
	<path clip-path="url(#SVGID_2_)" fill="#0080C6" d="M72.956,66.333c18.789,12.843,39.849,16.72,47.302,8.395
		c7.525-8.395,4.932-32.91-5.446-55.135c-10.385-22.215-31.27-26.312-47.419-8.311C51.456,29.278,54.201,53.539,72.956,66.333"/>
	<path clip-path="url(#SVGID_2_)" fill="#FFFFFF" d="M271.142,119.797v-3.932v-11.417V84.368h6.115c4.567,0,8.65,1.681,11.578,4.544
		c2.937,2.868,4.714,6.923,4.714,11.628c0.004,4.7-1.777,8.684-4.714,11.474c-2.937,2.779-7.019,4.371-11.578,4.371h-1.688
		c-0.595,0.027-1.272,0.111-1.883,0.365c-0.607,0.26-1.167,0.662-1.573,1.371L271.142,119.797 M277.257,75.561h-5.696h-5.313
		c-1.656,0-3.024,0.59-3.978,1.554c-0.975,0.97-1.526,2.317-1.531,3.877l-0.033,44.208l16.551-0.023
		c7.403,0,14.021-2.681,18.793-7.098c4.748-4.422,7.659-10.558,7.659-17.539C303.709,86.595,292.069,75.57,277.257,75.561"/>
	<path clip-path="url(#SVGID_2_)" fill="#FFFFFF" d="M225.198,104.398l13.192-15.775l-0.134,15.775H225.198 M247.803,75.46h-3.677
		c-1.979,0-3.477,0.611-4.539,1.711l-6.989,8.236l-14.442,16.975c-0.929,1.1-1.431,2.307-1.477,3.479v0.354
		c0.046,1.248,0.623,2.436,1.752,3.392l1.234,1.048l1.986,1.405l16.484,0.053l-0.154,12.966h4.43c3.472,0,5.91-1.747,5.91-5.055
		l-0.084-7.878l3.066,0.017c3.149,0,5.345-1.883,5.345-4.884v-2.882h-8.516L247.803,75.46"/>
	<path clip-path="url(#SVGID_2_)" fill="#FFFFFF" d="M390.179,75.563H371.03c-2.849,0-4.413,1.378-4.413,3.97v33.162h19.141
		c2.602,0,4.421-1.308,4.421-3.787v-2.979c0,0-9.048,0.009-11.578,0.009c-0.138,0-0.318-0.007-0.531-0.007
		c-0.92,0-2.4,0.126-3.162,1.462v-9.829h10.06c2.589,0,4.404-1.312,4.404-3.793v-2.993h-10.582c-0.134,0-0.326-0.008-0.561-0.008
		c-0.954,0-2.535,0.133-3.321,1.479v-9.907h10.851c2.602,0,4.421-1.558,4.421-4.036V75.563"/>
	<path clip-path="url(#SVGID_2_)" fill="#FFFFFF" d="M348.498,75.573H344.6c-2.594,0-4.416,1.874-4.416,4.35l-0.018,24.519v8.24
		l17.383,0.021c2.585,0,4.404-1.555,4.404-4.03v-3.256h-13.468L348.498,75.573"/>
	<path clip-path="url(#SVGID_2_)" fill="#FFFFFF" d="M402.798,75.521h-2.405c-2.589,0-4.764,1.315-4.764,3.793l9.378,15.176
		l-10.479,18.219l0.055-0.014l-0.055,0.02h6.044c1.787,0,2.933-0.635,3.522-1.828h0.008l0.009-0.007l7.01-12.631l8.508,14.49h2.401
		c2.602,0,4.764-1.315,4.764-3.792l-9.369-15.177l10.474-18.216l-0.063,0.013l0.063-0.021h-6.057c-1.781,0-2.919,0.634-3.526,1.828
		l-0.004,0.008l-7.006,12.634L402.798,75.521"/>
	<path clip-path="url(#SVGID_2_)" fill="#FFFFFF" d="M318.215,83.74v-1.389h0.008h0.009h3.789c2.882,0,5.827,0.506,5.827,4.227
		c0,3.718-3.05,4.222-6.036,4.222h-0.903c-0.896,0.052-2.045,0.324-2.702,1.454v-8.523L318.215,83.74 M323.61,75.556h-6.889
		l-0.013,0.006h-2.371c-2.85,0-4.422,1.374-4.422,3.97v33.196h3.906c2.598,0,4.417-1.318,4.417-3.789v-1.982l-0.033-9.361h5.505
		c4.425,0,12.405-2.438,12.405-11.074C336.116,78.833,329.759,75.556,323.61,75.556"/>
</g>
</svg>
