<svg id="레이어_1" data-name="레이어 1" xmlns="http://www.w3.org/2000/svg" viewBox="0 0 183.42 179.77"><defs><style>.cls-1,.cls-3{stroke:#000;}.cls-1,.cls-2,.cls-3{stroke-miterlimit:10;}.cls-1{stroke-width:0.75px;}.cls-2{stroke:#fff;}.cls-3{stroke-width:2px;}</style></defs><title>main</title><path class="cls-1" d="M177.76,177.68H22.24a4.88,4.88,0,0,0-4.85,4.86,4.83,4.83,0,0,0,4.83,4.86H177.76a4.86,4.86,0,0,0,0-9.72Zm-29.18-24.29a4.86,4.86,0,1,0,0-9.72H51.42a4.86,4.86,0,1,0,0,9.72Z" transform="translate(-8.29 -8.01)"/><polygon class="cls-2" points="106.89 104.87 76.53 87.34 76.53 122.4 106.89 104.87"/><path class="cls-3" d="M165.5,9H34.63C20.7,9,9.43,21.15,9.43,36.12V162.65l-.14.25v12.71s27-43.34,35-65.85c6.45-18.05,13.5-46.26,13.5-46.26s15.81,7.28,42.25,7.28,42.25-7.28,42.25-7.28a364.48,364.48,0,0,0,13.5,50.4c8.84,24.73,34.89,60,34.89,60V36.12C190.71,21.1,179.42,9,165.5,9Zm-2.24,102.68c-9.85-27.75-16.15-58.82-16.15-58.82s-17.61,9.29-47,9.29-47-9.29-47-9.29-9,33.92-16.15,54.18c-4.09,11.52-12.36,27.78-20.11,42.18V41.39c0-13.52,10.36-24.48,23.16-24.48H160.2c12.79,0,23.17,10.91,23.17,24.48V151.05C175.8,138.49,167.7,124.21,163.26,111.69Z" transform="translate(-8.29 -8.01)"/></svg>