<svg id="레이어_1" data-name="레이어 1" xmlns="http://www.w3.org/2000/svg" viewBox="0 0 155.83 178.96"><defs><style>.cls-1{fill:#8a8a8a;}.cls-2{fill:none;stroke:#8a8a8a;stroke-miterlimit:10;stroke-width:8px;}</style></defs><title>management </title><path class="cls-1" d="M23.85,140.63v50.82H56.39V140.63Zm24.56,41.9H31.81V149h16.6Z" transform="translate(-23.85 -12.52)"/><path class="cls-1" d="M163.78,48.17a5.87,5.87,0,1,0,11.73,0V18.39a5.86,5.86,0,0,0-5.87-5.87H139.86a5.87,5.87,0,1,0,0,11.73H156l-51.37,51.4L88.72,59.76A5.87,5.87,0,0,0,84.57,58h0a5.83,5.83,0,0,0-4.15,1.73L25.93,114.52a5.87,5.87,0,1,0,8.32,8.27L84.58,72.21,100.46,88.1a6,6,0,0,0,8.3,0l55-55V48.17Z" transform="translate(-23.85 -12.52)"/><path class="cls-2" d="M27.89,145.31H52.48v42.17H27.89Z" transform="translate(-23.85 -12.52)"/><path class="cls-2" d="M27.89,144.91H52.48v42H27.89Z" transform="translate(-23.85 -12.52)"/><path class="cls-1" d="M147.13,70.35V191.17h32.55V70.35ZM171.7,183.16H155.11V78.34H171.7Z" transform="translate(-23.85 -12.52)"/><path class="cls-1" d="M106,93.54v97.63H138.6V93.54Zm24.6,89.63H114l0-81.63h16.59Z" transform="translate(-23.85 -12.52)"/><path class="cls-1" d="M64.92,116.18l0,74.93H97.5V116.18ZM89.53,183.1H72.94V124.28H89.53Z" transform="translate(-23.85 -12.52)"/></svg>