<?xml version="1.0" encoding="utf-8"?>
<!-- Generator: Adobe Illustrator 22.0.0, SVG Export Plug-In . SVG Version: 6.00 Build 0)  -->
<svg version="1.1" id="레이어_1" xmlns="http://www.w3.org/2000/svg" xmlns:xlink="http://www.w3.org/1999/xlink" x="0px"
	 y="0px" viewBox="0 0 152.1 152.1" style="enable-background:new 0 0 152.1 152.1;" xml:space="preserve">
<style type="text/css">
	.st0{fill:#555555;stroke:#555555;stroke-width:2;stroke-miterlimit:10;}
</style>
<path class="st0" d="M139.5,57.6h-8.7c-0.8,0-1.6-0.5-1.9-1.3l-1.7-4.9c-0.2-0.7,0-1.5,0.5-2l5.8-5.8c4.5-4.5,4.5-11.9,0-16.5
	l-8.5-8.5c-2.3-2.3-5.2-3.4-8.2-3.4c-3,0-6,1.1-8.2,3.4l-5.8,5.8c-0.4,0.4-0.9,0.6-1.4,0.6c-0.2,0-0.4,0-0.6-0.1l-5-1.6
	c-0.8-0.3-1.3-1-1.3-1.9v-8.7C94.5,6.2,89.3,1,82.8,1H69.3c-6.4,0-11.6,5.2-11.6,11.6v8.7c0,0.8-0.5,1.6-1.3,1.9l-4.9,1.7
	c-0.2,0.1-0.4,0.1-0.6,0.1c-0.5,0-1-0.2-1.4-0.6l-5.8-5.8c-2.3-2.3-5.2-3.4-8.2-3.4c-3,0-6,1.1-8.2,3.4l-8.5,8.5
	C14,31.6,14,39,18.6,43.5l5.8,5.8c0.5,0.5,0.7,1.3,0.5,2l-1.6,4.9c-0.3,0.8-1,1.3-1.9,1.3h-8.7C6.2,57.6,1,62.9,1,69.3v13.6
	c0,6.4,5.2,11.6,11.6,11.6h8.7c0.8,0,1.6,0.5,1.9,1.3l1.6,4.9c0.2,0.7,0,1.5-0.5,2l-5.8,5.8c-4.5,4.5-4.5,11.9,0,16.4l8.5,8.5
	c2.3,2.3,5.2,3.4,8.2,3.4c3,0,6-1.1,8.2-3.4l5.8-5.8c0.4-0.4,0.9-0.6,1.4-0.6c0.2,0,0.4,0,0.6,0.1l4.9,1.6c0.8,0.3,1.3,1,1.3,1.9
	v8.7c0,6.4,5.2,11.6,11.6,11.6h13.6c6.4,0,11.6-5.2,11.6-11.6v-8.7c0-0.8,0.5-1.6,1.3-1.9l5-1.6c0.2-0.1,0.4-0.1,0.6-0.1
	c0.5,0,1,0.2,1.4,0.6l5.8,5.8c2.3,2.3,5.2,3.4,8.2,3.4c3,0,6-1.1,8.2-3.4l8.5-8.5c4.5-4.5,4.5-11.9,0-16.4l-5.8-5.8
	c-0.5-0.5-0.7-1.3-0.5-2l1.6-4.9c0.3-0.8,1-1.3,1.9-1.3h8.7c6.4,0,11.6-5.2,11.6-11.6V69.2C151.1,62.8,145.9,57.6,139.5,57.6
	L139.5,57.6z M144.6,82.8c0,2.8-2.3,5.1-5.1,5.1h-8.7c-3.7,0-6.9,2.3-8,5.8l-1.6,4.9c-1,3.1-0.3,6.4,2.1,8.7l5.8,5.8
	c1,1,1.5,2.2,1.5,3.6c0,1.4-0.5,2.6-1.5,3.6l-8.5,8.5c-1,1-2.2,1.5-3.6,1.5c-1.4,0-2.6-0.5-3.6-1.5l-5.8-5.8c-1.6-1.6-3.7-2.5-6-2.5
	c-0.9,0-1.8,0.1-2.7,0.4l-5,1.6c-3.5,1.2-5.8,4.4-5.8,8v8.7c0,2.8-2.3,5.1-5.1,5.1H69.3c-2.8,0-5.1-2.3-5.1-5.1v-8.7
	c0-3.7-2.3-6.9-5.8-8l-4.9-1.6c-0.9-0.3-1.8-0.4-2.7-0.4c-2.3,0-4.4,0.9-6,2.5l-5.8,5.8c-1,1-2.2,1.5-3.6,1.5
	c-1.4,0-2.6-0.5-3.6-1.5l-8.5-8.5c-1-1-1.5-2.2-1.5-3.6c0-1.4,0.5-2.6,1.5-3.6l5.8-5.8c2.3-2.3,3.1-5.6,2-8.7l-1.6-5
	c-1.2-3.5-4.4-5.8-8-5.8h-8.7c-2.8,0-5.1-2.3-5.1-5.1V69.2c0-2.8,2.3-5.1,5.1-5.1h8.7c3.7,0,6.9-2.3,8.1-5.8l1.7-5
	c1-3.1,0.2-6.4-2.1-8.7l-5.8-5.8c-1-1-1.5-2.2-1.5-3.6c0-1.4,0.5-2.6,1.5-3.6l8.5-8.5c1-1,2.3-1.5,3.6-1.5c1.4,0,2.6,0.5,3.6,1.5
	l5.8,5.8c1.6,1.6,3.7,2.5,6,2.5c0.9,0,1.8-0.2,2.7-0.4l5-1.6c3.5-1.2,5.8-4.4,5.8-8v-8.7c0-2.8,2.3-5.1,5.1-5.1h13.6
	c2.8,0,5.1,2.3,5.1,5.1v8.7c0,3.7,2.3,6.9,5.8,8l5,1.7c0.9,0.3,1.8,0.4,2.7,0.4c2.2,0,4.4-0.9,6-2.5l5.8-5.8c1-1,2.3-1.5,3.6-1.5
	s2.6,0.5,3.6,1.5l8.5,8.5c1,1,1.5,2.2,1.5,3.6c0,1.4-0.5,2.6-1.5,3.6l-5.8,5.8c-2.3,2.3-3.1,5.6-2,8.7l1.6,4.9
	c1.2,3.5,4.4,5.8,8.1,5.8h8.7c2.8,0,5.1,2.3,5.1,5.1L144.6,82.8L144.6,82.8L144.6,82.8z M76.1,49.9c-14.4,0-26.1,11.7-26.1,26.1
	s11.7,26.1,26.1,26.1c14.4,0,26.1-11.7,26.1-26.1S90.4,49.9,76.1,49.9z M76.1,95.6c-10.8,0-19.6-8.8-19.6-19.6
	c0-10.8,8.8-19.6,19.6-19.6c10.8,0,19.6,8.8,19.6,19.6C95.6,86.8,86.8,95.6,76.1,95.6z"/>
</svg>
