<?xml version="1.0" encoding="utf-8"?>
<!-- Generator: Adobe Illustrator 22.0.0, SVG Export Plug-In . SVG Version: 6.00 Build 0)  -->
<svg version="1.1" id="레이어_1" xmlns="http://www.w3.org/2000/svg" xmlns:xlink="http://www.w3.org/1999/xlink" x="0px"
	 y="0px" viewBox="0 0 33.1 35.7" style="enable-background:new 0 0 33.1 35.7;" xml:space="preserve">
<style type="text/css">
	.st0{fill:#E42E43;}
</style>
<g>
	<path class="st0" d="M13.6,31.2c0,1.8,1.3,3.2,3,3.2c1.6,0,3-1.4,3-3.2c0-0.2-0.1-0.4-0.1-0.6h-5.7C13.7,30.8,13.6,31,13.6,31.2z"
		/>
</g>
<g>
	<circle class="st0" cx="16.6" cy="4.1" r="2.6"/>
</g>
<g>
	<path class="st0" d="M16.8,7.2c0.8,0,5.2,0.2,7.3,4.1c1.4,2.7,1.6,5.3,1.7,7.6c0.1,2.1,0.2,4.2,1.5,5.7l0.1,0.1l0.1,0.1l3.6,3.5
		v0.4H20.4h-7.6H2.1v-0.4l3.6-3.5l0.1-0.1l0.1-0.1c1.2-1.5,1.4-3.5,1.5-5.7c0.1-2.3,0.3-4.9,1.7-7.6c2.1-3.9,6.5-4.1,7.3-4.1l0.1,0
		l0.1,0l0.1,0L16.8,7.2 M16.8,5.2c-0.1,0-0.1,0-0.2,0c0,0-0.1,0-0.2,0c-1.2,0-6.4,0.3-9.1,5.2c-3,5.5-1.1,10.7-3,12.9l-4.2,4.1v3.2
		h12.7h7.6h12.7v-3.2l-4.2-4.1c-1.8-2.2,0-7.4-3-12.9C23.2,5.5,17.9,5.2,16.8,5.2L16.8,5.2z"/>
</g>
</svg>
