<svg id="Layer_1" data-name="Layer 1" xmlns="http://www.w3.org/2000/svg" viewBox="0 0 33.25 33.25"><defs><style>.cls-1,.cls-2{stroke:#000;stroke-miterlimit:10;}.cls-1{stroke-width:0.25px;}</style></defs><title>schedule</title><path class="cls-1" d="M37,8.5H13A4.51,4.51,0,0,0,8.5,13V37A4.51,4.51,0,0,0,13,41.5H37A4.51,4.51,0,0,0,41.5,37V13A4.51,4.51,0,0,0,37,8.5ZM40,37a3,3,0,0,1-3,3H13a3,3,0,0,1-3-3V13a3,3,0,0,1,3-3H37a3,3,0,0,1,3,3Z" transform="translate(-8.38 -8.38)"/><circle class="cls-2" cx="9.38" cy="5.9" r="1.27"/><circle class="cls-2" cx="16.63" cy="5.9" r="1.27"/><circle class="cls-2" cx="23.87" cy="5.9" r="1.27"/><rect x="11.26" y="13.03" width="4.6" height="4.09"/><rect x="17.4" y="13.03" width="4.59" height="4.09"/><rect x="23.53" y="13.03" width="4.6" height="4.09"/><rect x="5.13" y="18.49" width="4.59" height="4.09"/><rect x="11.26" y="18.49" width="4.6" height="4.09"/><rect x="17.4" y="18.49" width="4.59" height="4.09"/><rect x="23.53" y="18.49" width="4.6" height="4.09"/><rect x="5.13" y="23.94" width="4.59" height="4.09"/><rect x="11.26" y="23.94" width="4.6" height="4.09"/><rect x="17.4" y="23.94" width="4.59" height="4.09"/><rect x="23.53" y="23.94" width="4.6" height="4.09"/></svg>