<svg id="레이어_1" data-name="레이어 1" xmlns="http://www.w3.org/2000/svg" viewBox="0 0 172.1 176.8"><title>settlement</title><path d="M100.8,186.8H19.9a5,5,0,0,1-5-5V50.6a5,5,0,0,1,5-5H181.7a5,5,0,0,1,5,5V99.7a5,5,0,0,1-10,0V55.6H24.9V176.8h75.9a5,5,0,1,1,0,10Z" transform="translate(-14.9 -10)"/><path d="M181.7,55.6H19.9a4.77,4.77,0,0,1-4.4-2.7,5.35,5.35,0,0,1,.3-5.2L40.5,12.1A5.07,5.07,0,0,1,44.6,10H155.4a5.07,5.07,0,0,1,4,2l26.3,35.6a5.07,5.07,0,0,1-4,8ZM29.5,45.6H171.8L152.9,20H47.2ZM131.8,95.8H70a5,5,0,0,1,0-10h61.8a5,5,0,0,1,0,10Z" transform="translate(-14.9 -10)"/><path d="M131.6,116.85a19.65,19.65,0,0,0,39.3,0v0a19.65,19.65,0,1,0-39.3,0Z" transform="translate(-14.9 -10)"/><rect x="129.38" y="98.99" width="13.95" height="41.71"/><path d="M180.66,163.5H121.71a6.34,6.34,0,1,1,0-12.68h59a6.34,6.34,0,0,1,0,12.68Z" transform="translate(-14.9 -10)"/><path d="M164.34,186.3H138a5,5,0,0,1,0-10h26.3a5,5,0,0,1,0,10Z" transform="translate(-14.9 -10)"/></svg>