<?xml version="1.0" encoding="utf-8"?>
<!-- Generator: Adobe Illustrator 16.0.0, SVG Export Plug-In . SVG Version: 6.00 Build 0)  -->
<!DOCTYPE svg PUBLIC "-//W3C//DTD SVG 1.1//EN" "http://www.w3.org/Graphics/SVG/1.1/DTD/svg11.dtd">
<svg version="1.1" id="图层_1" xmlns="http://www.w3.org/2000/svg" xmlns:xlink="http://www.w3.org/1999/xlink" x="0px" y="0px"
	 width="152.092px" height="152.082px" viewBox="0 0 152.092 152.082" enable-background="new 0 0 152.092 152.082"
	 xml:space="preserve">
<g>
	<defs>
		<rect id="SVGID_1_" width="152.092" height="152.082"/>
	</defs>
	<clipPath id="SVGID_2_">
		<use xlink:href="#SVGID_1_"  overflow="visible"/>
	</clipPath>
	<path clip-path="url(#SVGID_2_)" d="M139.471,57.626h-8.679c-0.845,0-1.597-0.534-1.862-1.348l-1.662-4.949
		c-0.235-0.704-0.045-1.471,0.472-2.004l5.812-5.81c4.543-4.54,4.543-11.916,0-16.459l-8.507-8.502
		c-2.269-2.27-5.244-3.398-8.221-3.398s-5.968,1.128-8.239,3.398l-5.793,5.81c-0.37,0.371-0.872,0.579-1.396,0.579
		c-0.213,0-0.423-0.032-0.624-0.095l-4.952-1.644c-0.796-0.266-1.349-1.018-1.349-1.863v-8.707C94.471,6.214,89.256,1,82.836,1
		h-13.58c-6.42,0-11.637,5.215-11.637,11.635v8.676c0,0.846-0.531,1.598-1.347,1.863l-4.933,1.659
		c-0.204,0.08-0.423,0.111-0.627,0.111c-0.516,0-1.004-0.203-1.38-0.579l-5.809-5.81c-2.271-2.27-5.247-3.398-8.223-3.398
		c-2.976,0-5.965,1.128-8.24,3.398l-8.501,8.502c-4.543,4.543-4.543,11.919,0,16.459l5.809,5.81c0.532,0.533,0.704,1.3,0.468,2.02
		l-1.644,4.949c-0.265,0.798-1.016,1.347-1.861,1.347h-8.692C6.216,57.642,1,62.856,1,69.276v13.576
		c0,6.422,5.216,11.637,11.639,11.637h8.673c0.848,0,1.599,0.532,1.867,1.347l1.644,4.947c0.236,0.704,0.045,1.474-0.471,2.004
		l-5.812,5.811c-4.54,4.542-4.54,11.917,0,16.443l8.507,8.503c2.269,2.27,5.245,3.397,8.24,3.397c2.989,0,5.952-1.128,8.221-3.397
		l5.811-5.812c0.369-0.37,0.87-0.578,1.393-0.579c0.204,0,0.423,0.033,0.627,0.111l4.949,1.645c0.8,0.267,1.347,1.019,1.347,1.863
		v8.677c0,6.418,5.216,11.634,11.637,11.634h13.58c6.424,0,11.637-5.216,11.637-11.634v-8.677c0-0.845,0.535-1.597,1.348-1.863
		l4.964-1.645c0.204-0.063,0.423-0.093,0.627-0.093c0.518,0,1,0.204,1.376,0.578l5.813,5.811c2.271,2.269,5.244,3.397,8.239,3.397
		c2.988,0,5.951-1.129,8.221-3.397l8.507-8.504c4.541-4.526,4.541-11.917,0-16.443l-5.843-5.84c-0.532-0.534-0.721-1.3-0.472-2.021
		l1.644-4.949c0.267-0.798,1.02-1.349,1.867-1.349h8.677c6.42,0,11.636-5.214,11.636-11.633V69.245
		C151.107,62.84,145.876,57.626,139.471,57.626 M144.576,82.823c0,2.818-2.288,5.104-5.105,5.104h-8.679
		c-3.664,0-6.905,2.334-8.049,5.809l-1.645,4.949c-1.031,3.069-0.252,6.389,2.053,8.691l5.812,5.81
		c0.953,0.954,1.484,2.239,1.484,3.618c0,1.362-0.531,2.646-1.484,3.617l-8.507,8.504c-0.956,0.954-2.237,1.485-3.601,1.485
		c-1.364,0-2.648-0.531-3.62-1.485l-5.812-5.811c-1.596-1.599-3.728-2.489-5.997-2.489c-0.912,0-1.803,0.139-2.694,0.438
		l-4.98,1.644c-3.477,1.159-5.809,4.4-5.809,8.05v8.675c0,2.82-2.288,5.105-5.107,5.105h-13.58c-2.82,0-5.108-2.285-5.108-5.105
		v-8.675c0-3.664-2.332-6.907-5.808-8.05l-4.936-1.644c-0.873-0.3-1.785-0.438-2.708-0.438c-2.256,0-4.369,0.878-6.016,2.489
		l-5.809,5.811c-0.956,0.954-2.24,1.485-3.604,1.485c-1.36,0-2.644-0.531-3.616-1.485l-8.504-8.504
		c-0.956-0.954-1.488-2.239-1.488-3.617c0-1.364,0.532-2.648,1.488-3.603l5.843-5.825c2.27-2.285,3.053-5.606,2.034-8.677
		l-1.645-4.964c-1.16-3.474-4.4-5.808-8.048-5.808h-8.693c-2.822,0-5.107-2.287-5.107-5.105V69.245c0-2.817,2.285-5.106,5.107-5.106
		h8.673c3.668,0,6.908-2.332,8.052-5.808l1.66-4.964c1.004-3.054,0.22-6.373-2.065-8.676l-5.811-5.809
		c-0.956-0.956-1.489-2.24-1.489-3.618c0-1.362,0.533-2.646,1.489-3.618l8.504-8.503c0.956-0.956,2.255-1.487,3.616-1.487
		c1.364,0,2.648,0.531,3.604,1.487l5.808,5.81c1.6,1.597,3.728,2.491,6.003,2.491c0.924,0,1.849-0.158,2.693-0.44l4.98-1.628
		c3.476-1.158,5.792-4.4,5.792-8.049v-8.692c0-2.818,2.288-5.104,5.108-5.104h13.58c2.819,0,5.107,2.286,5.107,5.104v8.676
		c0,3.664,2.333,6.907,5.809,8.049l4.968,1.66c0.86,0.282,1.769,0.438,2.677,0.438c2.239,0,4.37-0.876,6.016-2.488l5.792-5.811
		c0.956-0.954,2.256-1.488,3.62-1.488c1.363,0,2.645,0.534,3.619,1.488l8.501,8.503c0.956,0.956,1.491,2.24,1.491,3.618
		c0,1.362-0.535,2.646-1.491,3.618l-5.824,5.824c-2.288,2.287-3.072,5.623-2.036,8.677l1.644,4.948
		c1.159,3.476,4.4,5.808,8.052,5.808h8.677c2.819,0,5.107,2.288,5.107,5.106v13.562L144.576,82.823L144.576,82.823z M76.052,49.938
		c-14.393,0-26.107,11.713-26.107,26.104c0,14.39,11.715,26.104,26.107,26.104c14.396,0,26.111-11.714,26.111-26.104
		C102.163,61.65,90.447,49.938,76.052,49.938 M76.052,95.616c-10.789,0-19.576-8.785-19.576-19.575
		c0-10.789,8.787-19.575,19.576-19.575c10.792,0,19.58,8.786,19.58,19.575C95.632,86.831,86.844,95.616,76.052,95.616"/>
	<path clip-path="url(#SVGID_2_)" fill="none" stroke="#000000" stroke-width="2" stroke-miterlimit="10" d="M139.471,57.626h-8.679
		c-0.845,0-1.597-0.534-1.862-1.348l-1.662-4.949c-0.235-0.704-0.045-1.471,0.472-2.004l5.812-5.81
		c4.543-4.54,4.543-11.916,0-16.459l-8.507-8.502c-2.269-2.27-5.244-3.398-8.221-3.398s-5.968,1.128-8.239,3.398l-5.793,5.81
		c-0.37,0.371-0.872,0.579-1.396,0.579c-0.213,0-0.423-0.032-0.624-0.095l-4.952-1.644c-0.796-0.266-1.349-1.018-1.349-1.863v-8.707
		C94.471,6.214,89.256,1,82.836,1h-13.58c-6.42,0-11.637,5.215-11.637,11.635v8.676c0,0.846-0.531,1.598-1.347,1.863l-4.933,1.659
		c-0.204,0.08-0.423,0.111-0.627,0.111c-0.516,0-1.004-0.203-1.38-0.579l-5.809-5.81c-2.271-2.27-5.247-3.398-8.223-3.398
		c-2.976,0-5.965,1.128-8.24,3.398l-8.501,8.502c-4.543,4.543-4.543,11.919,0,16.459l5.809,5.81c0.532,0.533,0.704,1.3,0.468,2.02
		l-1.644,4.949c-0.265,0.798-1.016,1.347-1.861,1.347h-8.692C6.216,57.642,1,62.856,1,69.276v13.576
		c0,6.422,5.216,11.637,11.639,11.637h8.673c0.848,0,1.599,0.532,1.867,1.347l1.644,4.947c0.236,0.704,0.045,1.474-0.471,2.004
		l-5.812,5.811c-4.54,4.542-4.54,11.917,0,16.443l8.507,8.503c2.269,2.27,5.245,3.397,8.24,3.397c2.989,0,5.952-1.128,8.221-3.397
		l5.811-5.812c0.369-0.37,0.87-0.578,1.393-0.579c0.204,0,0.423,0.033,0.627,0.111l4.949,1.645c0.8,0.267,1.347,1.019,1.347,1.863
		v8.677c0,6.418,5.216,11.634,11.637,11.634h13.58c6.424,0,11.637-5.216,11.637-11.634v-8.677c0-0.845,0.535-1.597,1.348-1.863
		l4.964-1.645c0.204-0.063,0.423-0.093,0.627-0.093c0.518,0,1,0.204,1.376,0.578l5.813,5.811c2.271,2.269,5.244,3.397,8.239,3.397
		c2.988,0,5.951-1.129,8.221-3.397l8.507-8.504c4.541-4.526,4.541-11.917,0-16.443l-5.843-5.84c-0.532-0.534-0.721-1.3-0.472-2.021
		l1.644-4.949c0.267-0.798,1.02-1.349,1.867-1.349h8.677c6.42,0,11.636-5.214,11.636-11.633V69.245
		C151.107,62.84,145.876,57.626,139.471,57.626z M144.576,82.823c0,2.818-2.288,5.104-5.105,5.104h-8.679
		c-3.664,0-6.905,2.334-8.049,5.809l-1.645,4.949c-1.031,3.069-0.252,6.389,2.053,8.691l5.812,5.81
		c0.953,0.954,1.484,2.239,1.484,3.618c0,1.362-0.531,2.646-1.484,3.617l-8.507,8.504c-0.956,0.954-2.237,1.485-3.601,1.485
		c-1.364,0-2.648-0.531-3.62-1.485l-5.812-5.811c-1.596-1.599-3.728-2.489-5.997-2.489c-0.912,0-1.803,0.139-2.694,0.438
		l-4.98,1.644c-3.477,1.159-5.809,4.4-5.809,8.05v8.675c0,2.82-2.288,5.105-5.107,5.105h-13.58c-2.82,0-5.108-2.285-5.108-5.105
		v-8.675c0-3.664-2.332-6.907-5.808-8.05l-4.936-1.644c-0.873-0.3-1.785-0.438-2.708-0.438c-2.256,0-4.369,0.878-6.016,2.489
		l-5.809,5.811c-0.956,0.954-2.24,1.485-3.604,1.485c-1.36,0-2.644-0.531-3.616-1.485l-8.504-8.504
		c-0.956-0.954-1.488-2.239-1.488-3.617c0-1.364,0.532-2.648,1.488-3.603l5.843-5.825c2.27-2.285,3.053-5.606,2.034-8.677
		l-1.645-4.964c-1.16-3.474-4.4-5.808-8.048-5.808h-8.693c-2.822,0-5.107-2.287-5.107-5.105V69.245c0-2.817,2.285-5.106,5.107-5.106
		h8.673c3.668,0,6.908-2.332,8.052-5.808l1.66-4.964c1.004-3.054,0.22-6.373-2.065-8.676l-5.811-5.809
		c-0.956-0.956-1.489-2.24-1.489-3.618c0-1.362,0.533-2.646,1.489-3.618l8.504-8.503c0.956-0.956,2.255-1.487,3.616-1.487
		c1.364,0,2.648,0.531,3.604,1.487l5.808,5.81c1.6,1.597,3.728,2.491,6.003,2.491c0.924,0,1.849-0.158,2.693-0.44l4.98-1.628
		c3.476-1.158,5.792-4.4,5.792-8.049v-8.692c0-2.818,2.288-5.104,5.108-5.104h13.58c2.819,0,5.107,2.286,5.107,5.104v8.676
		c0,3.664,2.333,6.907,5.809,8.049l4.968,1.66c0.86,0.282,1.769,0.438,2.677,0.438c2.239,0,4.37-0.876,6.016-2.488l5.792-5.811
		c0.956-0.954,2.256-1.488,3.62-1.488c1.363,0,2.645,0.534,3.619,1.488l8.501,8.503c0.956,0.956,1.491,2.24,1.491,3.618
		c0,1.362-0.535,2.646-1.491,3.618l-5.824,5.824c-2.288,2.287-3.072,5.623-2.036,8.677l1.644,4.948
		c1.159,3.476,4.4,5.808,8.052,5.808h8.677c2.819,0,5.107,2.288,5.107,5.106v13.562L144.576,82.823L144.576,82.823z M76.052,49.938
		c-14.393,0-26.107,11.713-26.107,26.104c0,14.39,11.715,26.104,26.107,26.104c14.396,0,26.111-11.714,26.111-26.104
		C102.163,61.65,90.447,49.938,76.052,49.938z M76.052,95.616c-10.789,0-19.576-8.785-19.576-19.575
		c0-10.789,8.787-19.575,19.576-19.575c10.792,0,19.58,8.786,19.58,19.575C95.632,86.831,86.844,95.616,76.052,95.616z"/>
</g>
</svg>
